<svg id="svgcontent" width="580" height="400" x="171.5" y="21" overflow="hidden" xmlns="http://www.w3.org/2000/svg" xmlns:se="http://svg-edit.googlecode.com" xmlns:xlink="http://www.w3.org/1999/xlink" viewBox="0 0 580 400">
  <!-- Created with Method Draw - http://github.com/duopixel/Method-Draw/ -->
  
  <g style="pointer-events:all">
    <title style="pointer-events:inherit">Layer 1</title>
    <path fill="#d33f21" stroke="#FFA9A2" stroke-width="5" stroke-opacity="1" fill-opacity="null" opacity="1" d="M374.0003967285156,219.77700805664062 C374.0003967285156,227.0181427001953 336.3923034667969,232.88824462890625 290.0003967285156,232.88824462890625 M374.0003967285156,219.77700805664062 L374.0003967285156,219.77700805664062 C374.0003967285156,227.0181427001953 336.3923034667969,232.88824462890625 290.0003967285156,232.88824462890625 C243.60848999023438,232.88824462890625 206.0004119873047,227.01815795898438 206.0004119873047,219.77700805664062 M206.0004119873047,219.77700805664062 L206.0004119873047,219.77700805664062 C206.0004119873047,212.53587341308594 243.60848999023438,206.665771484375 290.0003967285156,206.665771484375 C336.3923034667969,206.665771484375 374.0003967285156,212.53587341308594 374.0003967285156,219.77700805664062 L374.0003967285156,272.22198486328125 C374.0003967285156,279.463134765625 336.3923034667969,285.33319091796875 290.0003967285156,285.33319091796875 C243.60848999023438,285.33319091796875 206.0004119873047,279.463134765625 206.0004119873047,272.22198486328125 z" id="svg_2" stroke-dasharray="none"></path>
    <path fill="#d33f21" stroke="#FFA9A2" stroke-width="5" stroke-opacity="1" fill-opacity="null" opacity="1" d="M374.0003967285156,167.77700805664062 C374.0003967285156,175.0181427001953 336.3923034667969,180.88824462890625 290.0003967285156,180.88824462890625 M374.0003967285156,167.77700805664062 L374.0003967285156,167.77700805664062 C374.0003967285156,175.0181427001953 336.3923034667969,180.88824462890625 290.0003967285156,180.88824462890625 C243.60848999023438,180.88824462890625 206.0004119873047,175.01815795898438 206.0004119873047,167.77700805664062 M206.0004119873047,167.77700805664062 L206.0004119873047,167.77700805664062 C206.0004119873047,160.53587341308594 243.60848999023438,154.665771484375 290.0003967285156,154.665771484375 C336.3923034667969,154.665771484375 374.0003967285156,160.53587341308594 374.0003967285156,167.77700805664062 L374.0003967285156,220.22198486328125 C374.0003967285156,227.46311950683594 336.3923034667969,233.3332061767578 290.0003967285156,233.3332061767578 C243.60848999023438,233.3332061767578 206.0004119873047,227.46311950683594 206.0004119873047,220.22198486328125 z" id="svg_4" stroke-dasharray="none"></path>
    <path fill="#d33f21" stroke="#FFA9A2" stroke-width="5" stroke-opacity="1" fill-opacity="null" opacity="1" d="M374.0003967285156,115.77700805664062 C374.0003967285156,123.01814270019531 336.3923034667969,128.88824462890625 290.0003967285156,128.88824462890625 M374.0003967285156,115.77700805664062 L374.0003967285156,115.77700805664062 C374.0003967285156,123.01814270019531 336.3923034667969,128.88824462890625 290.0003967285156,128.88824462890625 C243.60848999023438,128.88824462890625 206.0004119873047,123.01815795898438 206.0004119873047,115.77700805664062 M206.0004119873047,115.77700805664062 L206.0004119873047,115.77700805664062 C206.0004119873047,108.53587341308594 243.60848999023438,102.665771484375 290.0003967285156,102.665771484375 C336.3923034667969,102.665771484375 374.0003967285156,108.53587341308594 374.0003967285156,115.77700805664062 L374.0003967285156,168.22198486328125 C374.0003967285156,175.46311950683594 336.3923034667969,181.3332061767578 290.0003967285156,181.3332061767578 C243.60848999023438,181.3332061767578 206.0004119873047,175.46311950683594 206.0004119873047,168.22198486328125 z" id="svg_5" stroke-dasharray="none"></path>
    <path fill="#619E73" stroke="#546433" stroke-width="5" fill-opacity="1" d="M298.513427734375,131.15016174316406 C301.631103515625,119.58421325683594 305.898193359375,109.78941345214844 309.94561767578125,104.90739440917969 C314.2821960449219,99.67720031738281 312.35791015625,97.40847778320312 307.88519287109375,102.47743225097656 C306.002685546875,104.60951232910156 305.465576171875,103.06082153320312 305.465576171875,95.50993347167969 C305.465576171875,77.49195861816406 313.707763671875,66.34325408935547 333.54150390625,57.53583526611328 C350.32293701171875,50.083946228027344 362.69561767578125,41.70402526855469 367.82568359375,34.31487274169922 L372.00579833984375,28.293235778808594 L372.00579833984375,38.769775390625 C372.00579833984375,51.724632263183594 368.45831298828125,71.29617309570312 364.53228759765625,80.00537109375 C360.366943359375,89.24436950683594 346.09033203125,106.29798889160156 339.08453369140625,110.40296936035156 C332.8077697753906,114.08087158203125 319.4032897949219,115.16363525390625 312.23876953125,112.5714111328125 C308.6685791015625,111.27987670898438 307.5356140136719,112.26641845703125 305.6852722167969,118.279052734375 C304.45513916015625,122.27798461914062 303.4492492675781,127.96612548828125 303.4492492675781,130.92027282714844 C303.4492492675781,134.2734375 302.2619934082031,136.29083251953125 300.28863525390625,136.29083251953125 C297.94464111328125,136.29083251953125 297.48602294921875,134.96253967285156 298.513427734375,131.15016174316406 z" id="svg_6" stroke-dasharray="none" stroke-opacity="1" transform="rotate(62, 335, 82.291)"></path>
  </g>
</svg>